<svg xmlns="http://www.w3.org/2000/svg" xmlns:xlink="http://www.w3.org/1999/xlink" width="500" zoomAndPan="magnify" viewBox="0 0 375 374.999991" height="500" preserveAspectRatio="xMidYMid meet" version="1.0"><path fill="#00bf63" d="M 254.871094 218.660156 C 257.628906 198.089844 251.257812 182.878906 235.9375 173.457031 C 230.484375 170.070312 224.519531 167.378906 218.730469 164.753906 C 215.703125 163.386719 212.761719 162.0625 209.871094 160.648438 C 208.050781 159.75 206.191406 158.875 204.304688 158 C 199.371094 155.691406 194.234375 153.3125 189.589844 150.285156 C 182.75 145.796875 180.324219 136.265625 183.511719 126.574219 C 186.070312 118.902344 191.566406 115.445312 201.324219 115.265625 C 210.992188 115.265625 217.542969 119.6875 220.324219 128.03125 C 221.152344 130.542969 221.601562 133.257812 222.027344 135.882812 L 222.074219 136.128906 C 222.273438 137.273438 222.453125 138.417969 222.679688 139.5625 L 222.769531 139.941406 L 254.511719 139.941406 L 254.554688 139.539062 C 255.519531 130.769531 253.210938 120.179688 248.722656 112.554688 C 241.8125 100.84375 230.867188 93.753906 214.332031 90.253906 L 212.335938 89.828125 L 212.335938 71.859375 L 193.832031 71.859375 L 193.832031 88.753906 L 192.058594 89.289062 C 190.21875 89.875 188.425781 90.410156 186.675781 90.929688 C 181.628906 92.429688 176.894531 93.84375 172.5625 95.996094 C 158.949219 102.816406 150.085938 116.230469 148.851562 131.84375 C 147.640625 147.144531 154.125 161.457031 166.195312 170.09375 C 172.363281 174.511719 179.496094 177.742188 186.40625 180.859375 C 189.230469 182.136719 192.441406 183.597656 195.46875 185.101562 C 197.328125 186.042969 199.238281 186.917969 201.121094 187.769531 L 202.0625 188.195312 C 206.191406 190.078125 210.496094 192.007812 214.378906 194.566406 C 221.511719 199.1875 224.316406 208.652344 221.332031 218.097656 C 219.671875 223.503906 215.1875 230.03125 203.320312 230.390625 C 201.144531 230.503906 198.789062 230.480469 196.632812 230.300781 C 185.554688 229.492188 177.835938 222 176.578125 210.761719 C 176.488281 209.953125 176.378906 209.125 176.265625 208.296875 L 175.773438 204.816406 L 144.1875 204.816406 L 144.140625 205.265625 C 141.472656 231.578125 156.480469 248.226562 189.972656 256.097656 L 191.945312 256.570312 L 191.945312 272.296875 L 210.542969 272.296875 L 210.542969 256.34375 L 213.234375 255.785156 C 213.773438 255.671875 214.289062 255.558594 214.804688 255.46875 C 217.789062 254.863281 220.613281 254.28125 223.375 253.40625 C 241.96875 247.550781 252.582031 235.84375 254.871094 218.660156 " fill-opacity="1" fill-rule="nonzero"/><path fill="#00bf63" d="M 167.316406 21.050781 L 94.878906 13.042969 C 93.757812 12.90625 92.703125 13.109375 91.808594 13.511719 C 91.808594 13.511719 91.808594 13.511719 91.785156 13.511719 C 91.402344 13.445312 91.023438 13.378906 90.617188 13.289062 C 90.753906 13.511719 90.863281 13.738281 90.976562 13.960938 C 88.398438 15.6875 87.34375 19.4375 89.496094 22.351562 L 103.113281 37.066406 C 103.832031 38.480469 104.570312 39.871094 105.289062 41.261719 C 46.582031 66.789062 -0.253906 153.964844 15.964844 194.476562 C 17.195312 197.617188 21.796875 197.125 22.242188 193.78125 C 30.613281 131.039062 82.835938 81.460938 118.660156 70.179688 L 120.609375 92.8125 C 121.621094 97.835938 128.101562 99.25 131.109375 95.101562 L 132.746094 92.902344 L 154.640625 62.796875 L 174 36.191406 C 178.308594 30.246094 174.605469 21.859375 167.316406 21.050781 " fill-opacity="1" fill-rule="nonzero"/><path fill="#00bf63" d="M 207.109375 353.949219 L 279.546875 361.957031 C 280.667969 362.09375 281.722656 361.890625 282.617188 361.488281 C 282.617188 361.488281 282.617188 361.488281 282.640625 361.488281 C 283.023438 361.554688 283.402344 361.621094 283.808594 361.710938 C 283.671875 361.488281 283.558594 361.261719 283.449219 361.039062 C 286.027344 359.3125 287.082031 355.5625 284.929688 352.648438 L 271.3125 337.933594 C 270.59375 336.519531 269.855469 335.128906 269.136719 333.738281 C 327.84375 308.210938 374.679688 221.035156 358.460938 180.523438 C 357.230469 177.382812 352.628906 177.875 352.179688 181.21875 C 343.8125 243.960938 291.589844 293.539062 255.765625 304.820312 L 253.816406 282.1875 C 252.804688 277.164062 246.324219 275.75 243.316406 279.898438 L 241.679688 282.097656 L 219.785156 312.203125 L 200.425781 338.808594 C 196.117188 344.753906 199.820312 353.140625 207.109375 353.949219 " fill-opacity="1" fill-rule="nonzero"/></svg>